<svg data-v-fde0c5aa="" xmlns="http://www.w3.org/2000/svg" viewBox="0 0 300 300" class="iconLeft"><!----><defs data-v-fde0c5aa=""><!----></defs><rect data-v-fde0c5aa="" fill="transparent" x="0" y="0" width="300px" height="300px" class="logo-background-square"></rect><defs data-v-fde0c5aa=""><!----></defs><g data-v-fde0c5aa="" id="1ab3348f-a5c5-4688-b1c7-a432a64498f2" fill="#000000" transform="matrix(2.404600010246307,0,0,2.404600010246307,88.64819655648974,115.50601335752188)"><path d="M8.92 16.88L8.92 16.88L8.92 16.88Q9.45 16.88 9.45 17.57L9.45 17.57L9.45 17.57Q9.45 18.25 8.88 18.80L8.88 18.80L8.88 18.80Q8.31 19.35 7.61 19.35L7.61 19.35L2.41 19.32L2.41 19.32Q1.46 19.32 1.20 19.27L1.20 19.27L1.20 19.27Q0.66 19.13 0.64 18.70L0.64 18.70L0.64 18.70Q0.64 18.46 1.11 18.40L1.11 18.40L1.11 18.40Q1.33 18.37 1.40 18.33L1.40 18.33L1.40 18.33Q1.67 18.22 1.67 17.85L1.67 17.85L1.67 11.18L1.67 11.18Q1.67 10.69 1.16 10.62L1.16 10.62L1.16 10.62Q1.06 10.61 0.98 10.60L0.98 10.60L0.98 10.60Q0.90 10.59 0.84 10.58L0.84 10.58L0.84 10.58Q0.79 10.57 0.77 10.55L0.77 10.55L0.77 10.55Q0.75 10.54 0.71 10.52L0.71 10.52L0.71 10.52Q0.68 10.49 0.67 10.46L0.67 10.46L0.67 10.46Q0.64 10.37 0.64 10.23L0.64 10.23L0.64 10.23Q0.64 10.08 0.75 9.96L0.75 9.96L0.75 9.96Q0.85 9.83 1.12 9.78L1.12 9.78L1.12 9.78Q1.46 9.72 2.41 9.72L2.41 9.72L8.10 9.72L8.10 9.72Q8.62 9.72 8.94 10.13L8.94 10.13L8.94 10.13Q9.26 10.54 9.26 11.13L9.26 11.13L9.26 11.13Q9.26 12.14 8.55 12.14L8.55 12.14L8.55 12.14Q8.11 12.14 7.95 11.86L7.95 11.86L7.95 11.86Q7.78 11.59 7.78 11.14L7.78 11.14L7.78 11.14Q7.78 10.69 7.79 10.53L7.79 10.53L3.17 10.53L3.17 13.94L6.10 13.94L6.10 13.94Q6.15 13.89 6.26 13.66L6.26 13.66L6.26 13.66Q6.58 13.02 6.72 13.02L6.72 13.02L6.72 13.02Q7.49 13.02 7.49 14.33L7.49 14.33L7.49 14.33Q7.49 14.90 7.33 15.30L7.33 15.30L7.33 15.30Q7.17 15.71 6.82 15.71L6.82 15.71L6.82 15.71Q6.64 15.71 6.52 15.57L6.52 15.57L6.52 15.57Q6.40 15.44 6.27 15.13L6.27 15.13L6.27 15.13Q6.15 14.82 6.09 14.72L6.09 14.72L3.17 14.72L3.17 18.42L7.53 18.42L7.53 18.42Q7.66 18.30 7.90 17.88L7.90 17.88L7.90 17.88Q8.13 17.47 8.39 17.18L8.39 17.18L8.39 17.18Q8.64 16.88 8.92 16.88ZM12.18 19.32L12.18 19.32L11.59 19.33L11.59 19.33Q10.70 19.33 10.49 19.05L10.49 19.05L10.49 19.05Q10.39 18.93 10.39 18.75L10.39 18.75L10.39 18.75Q10.39 18.58 10.53 18.51L10.53 18.51L10.53 18.51Q10.66 18.44 10.83 18.44L10.83 18.44L10.83 18.44Q11.00 18.43 11.14 18.33L11.14 18.33L11.14 18.33Q11.27 18.23 11.27 18.01L11.27 18.01L11.27 14.11L11.27 14.11Q11.27 13.71 10.78 13.63L10.78 13.63L10.78 13.63Q10.44 13.58 10.37 13.51L10.37 13.51L10.37 13.51Q10.29 13.45 10.29 13.28L10.29 13.28L10.29 13.28Q10.29 13.11 10.53 12.97L10.53 12.97L10.53 12.97Q10.94 12.73 11.55 12.73L11.55 12.73L11.55 12.73Q12.16 12.73 12.34 12.90L12.34 12.90L12.34 12.90Q12.51 13.08 12.51 13.68L12.51 13.68L12.51 13.68Q13.45 12.62 15.09 12.62L15.09 12.62L15.09 12.62Q16.42 12.62 16.98 13.35L16.98 13.35L16.98 13.35Q17.53 14.08 17.53 15.55L17.53 15.55L17.53 18.01L17.53 18.01Q17.53 18.41 17.98 18.43L17.98 18.43L17.98 18.43Q18.42 18.46 18.42 18.79L18.42 18.79L18.42 18.79Q18.42 19.15 17.99 19.25L17.99 19.25L17.99 19.25Q17.68 19.32 17.12 19.32L17.12 19.32L16.54 19.33L16.54 19.33Q15.64 19.33 15.43 19.05L15.43 19.05L15.43 19.05Q15.33 18.93 15.33 18.75L15.33 18.75L15.33 18.75Q15.33 18.58 15.47 18.51L15.47 18.51L15.47 18.51Q15.61 18.44 15.77 18.44L15.77 18.44L15.77 18.44Q15.94 18.43 16.08 18.33L16.08 18.33L16.08 18.33Q16.21 18.23 16.21 18.01L16.21 18.01L16.21 16.02L16.21 16.02Q16.21 14.75 15.92 14.16L15.92 14.16L15.92 14.16Q15.59 13.50 14.60 13.50L14.60 13.50L14.60 13.50Q13.41 13.50 12.97 14.14L12.97 14.14L12.97 14.14Q12.57 14.74 12.57 16.06L12.57 16.06L12.57 18.01L12.57 18.01Q12.57 18.41 13.01 18.43L13.01 18.43L13.01 18.43Q13.45 18.46 13.45 18.79L13.45 18.79L13.45 18.79Q13.45 19.16 13.04 19.25L13.04 19.25L13.04 19.25Q12.74 19.32 12.18 19.32ZM24.37 14.18L24.37 14.18Q24.08 13.81 23.55 13.59L23.55 13.59L23.55 13.59Q23.01 13.36 22.35 13.36L22.35 13.36L22.35 13.36Q21.68 13.36 21.22 13.75L21.22 13.75L21.22 13.75Q20.32 14.49 20.32 15.95L20.32 15.95L20.32 15.95Q20.32 17.08 20.93 17.86L20.93 17.86L20.93 17.86Q21.54 18.64 22.52 18.64L22.52 18.64L22.52 18.64Q23.50 18.64 23.94 18.23L23.94 18.23L23.94 18.23Q24.37 17.83 24.37 16.88L24.37 16.88L24.37 14.18ZM22.48 12.63L22.48 12.63L22.48 12.63Q22.93 12.63 23.49 12.77L23.49 12.77L23.49 12.77Q24.05 12.92 24.37 13.08L24.37 13.08L24.37 10.79L24.37 10.79Q24.37 10.17 23.88 10.12L23.88 10.12L23.88 10.12Q23.83 10.12 23.75 10.11L23.75 10.11L23.75 10.11Q23.68 10.10 23.65 10.10L23.65 10.10L23.65 10.10Q23.61 10.10 23.56 10.09L23.56 10.09L23.56 10.09Q23.51 10.08 23.48 10.06L23.48 10.06L23.48 10.06Q23.46 10.05 23.44 10.03L23.44 10.03L23.44 10.03Q23.39 9.99 23.39 9.83L23.39 9.83L23.39 9.83Q23.39 9.67 23.60 9.50L23.60 9.50L23.60 9.50Q23.99 9.19 24.64 9.19L24.64 9.19L24.64 9.19Q25.33 9.19 25.44 9.27L25.44 9.27L25.44 9.27Q25.68 9.43 25.68 9.70L25.68 9.70L25.68 17.18L25.68 17.18Q25.68 17.94 25.84 18.16L25.84 18.16L25.84 18.16Q26.01 18.38 26.14 18.43L26.14 18.43L26.14 18.43Q26.28 18.48 26.38 18.51L26.38 18.51L26.38 18.51Q26.48 18.55 26.52 18.56L26.52 18.56L26.52 18.56Q26.56 18.58 26.62 18.62L26.62 18.62L26.62 18.62Q26.73 18.68 26.73 18.81L26.73 18.81L26.73 18.81Q26.73 19.10 26.42 19.23L26.42 19.23L26.42 19.23Q26.12 19.37 25.62 19.37L25.62 19.37L25.62 19.37Q25.12 19.37 24.89 19.17L24.89 19.17L24.89 19.17Q24.66 18.98 24.49 18.47L24.49 18.47L24.49 18.47Q23.93 19.46 22.16 19.46L22.16 19.46L22.16 19.46Q20.73 19.46 19.84 18.52L19.84 18.52L19.84 18.52Q18.95 17.58 18.95 16.07L18.95 16.07L18.95 16.07Q18.95 14.57 19.94 13.60L19.94 13.60L19.94 13.60Q20.93 12.63 22.48 12.63ZM28.29 18.57L28.29 18.57L28.29 18.57Q27.34 17.64 27.34 16.11L27.34 16.11L27.34 16.11Q27.34 14.57 28.30 13.61L28.30 13.61L28.30 13.61Q29.25 12.65 30.73 12.65L30.73 12.65L30.73 12.65Q31.90 12.65 32.70 13.40L32.70 13.40L32.70 13.40Q33.50 14.16 33.50 15.30L33.50 15.30L33.50 15.30Q33.50 15.85 32.63 15.85L32.63 15.85L28.67 15.85L28.67 15.85Q28.68 16.96 29.39 17.72L29.39 17.72L29.39 17.72Q30.09 18.48 31.17 18.48L31.17 18.48L31.17 18.48Q31.88 18.48 32.55 18.06L32.55 18.06L32.55 18.06Q32.90 17.84 33.00 17.84L33.00 17.84L33.00 17.84Q33.10 17.84 33.23 17.94L33.23 17.94L33.23 17.94Q33.35 18.04 33.35 18.18L33.35 18.18L33.35 18.18Q33.35 18.56 32.87 18.88L32.87 18.88L32.87 18.88Q32.39 19.20 31.81 19.35L31.81 19.35L31.81 19.35Q31.23 19.50 30.79 19.50L30.79 19.50L30.79 19.50Q29.24 19.50 28.29 18.57ZM32.25 15.13L32.25 15.13L32.25 15.13Q32.23 14.35 31.83 13.86L31.83 13.86L31.83 13.86Q31.44 13.36 30.68 13.36L30.68 13.36L30.68 13.36Q29.91 13.36 29.34 13.91L29.34 13.91L29.34 13.91Q28.77 14.46 28.74 15.16L28.74 15.16L30.34 15.16L30.34 15.16Q31.40 15.16 32.25 15.13ZM36.31 19.32L36.31 19.32L35.72 19.33L35.72 19.33Q34.82 19.33 34.61 19.05L34.61 19.05L34.61 19.05Q34.51 18.93 34.51 18.75L34.51 18.75L34.51 18.75Q34.51 18.58 34.65 18.51L34.65 18.51L34.65 18.51Q34.79 18.44 34.96 18.44L34.96 18.44L34.96 18.44Q35.12 18.43 35.26 18.33L35.26 18.33L35.26 18.33Q35.40 18.23 35.40 18.01L35.40 18.01L35.40 14.64L35.40 14.64Q35.40 14.03 35.25 13.88L35.25 13.88L35.25 13.88Q35.10 13.74 35.00 13.70L35.00 13.70L35.00 13.70Q34.90 13.66 34.69 13.60L34.69 13.60L34.69 13.60Q34.48 13.54 34.35 13.47L34.35 13.47L34.35 13.47Q34.21 13.41 34.21 13.29L34.21 13.29L34.21 13.29Q34.21 12.74 35.68 12.74L35.68 12.74L35.68 12.74Q36.31 12.74 36.47 12.96L36.47 12.96L36.47 12.96Q36.64 13.17 36.64 13.95L36.64 13.95L36.64 13.95Q36.87 13.36 37.41 13.03L37.41 13.03L37.41 13.03Q37.95 12.69 38.51 12.69L38.51 12.69L38.51 12.69Q39.07 12.69 39.44 12.94L39.44 12.94L39.44 12.94Q39.81 13.18 39.81 13.55L39.81 13.55L39.81 13.55Q39.81 13.92 39.57 14.15L39.57 14.15L39.57 14.15Q39.33 14.37 38.98 14.37L38.98 14.37L38.98 14.37Q38.63 14.37 38.38 14.18L38.38 14.18L38.38 14.18Q38.13 14 38.06 13.71L38.06 13.71L38.06 13.71Q37.88 13.68 37.76 13.68L37.76 13.68L37.76 13.68Q36.70 13.68 36.70 16.13L36.70 16.13L36.70 18.01L36.70 18.01Q36.70 18.41 37.14 18.43L37.14 18.43L37.14 18.43Q37.58 18.46 37.58 18.79L37.58 18.79L37.58 18.79Q37.58 19.16 37.17 19.25L37.17 19.25L37.17 19.25Q36.85 19.32 36.31 19.32ZM44.26 10.47L44.26 10.47L44.26 10.47Q43.42 10.47 42.95 10.68L42.95 10.68L42.95 10.68Q42.09 11.08 42.09 11.73L42.09 11.73L42.09 11.73Q42.09 12.08 42.29 12.28L42.29 12.28L42.29 12.28Q42.81 12.84 43.67 13.22L43.67 13.22L43.67 13.22Q44.18 13.45 45.15 13.80L45.15 13.80L45.15 13.80Q46.13 14.16 46.47 14.31L46.47 14.31L46.47 14.31Q46.81 14.47 47.23 14.74L47.23 14.74L47.23 14.74Q47.65 15.00 47.93 15.29L47.93 15.29L47.93 15.29Q48.58 15.98 48.58 16.87L48.58 16.87L48.58 16.87Q48.58 17.51 48.24 18.02L48.24 18.02L48.24 18.02Q47.89 18.53 47.32 18.84L47.32 18.84L47.32 18.84Q46.14 19.48 44.63 19.48L44.63 19.48L44.63 19.48Q42.59 19.48 41.30 18.77L41.30 18.77L41.30 18.77Q40.87 18.53 40.59 18.16L40.59 18.16L40.59 18.16Q40.32 17.78 40.32 17.35L40.32 17.35L40.32 17.35Q40.32 16.93 40.58 16.68L40.58 16.68L40.58 16.68Q40.84 16.43 41.32 16.43L41.32 16.43L41.32 16.43Q41.80 16.43 42.07 16.77L42.07 16.77L42.07 16.77Q42.34 17.10 42.34 17.64L42.34 17.64L42.34 17.64Q42.34 17.86 42.30 18.10L42.30 18.10L42.30 18.10Q43.34 18.63 44.52 18.63L44.52 18.63L44.52 18.63Q45.57 18.63 46.31 18.32L46.31 18.32L46.31 18.32Q47.15 17.96 47.15 17.06L47.15 17.06L47.15 17.06Q47.15 16.13 45.27 15.41L45.27 15.41L45.27 15.41Q44.96 15.29 44.30 15.07L44.30 15.07L44.30 15.07Q42.96 14.60 42.29 14.25L42.29 14.25L42.29 14.25Q40.63 13.37 40.63 12.05L40.63 12.05L40.63 12.05Q40.63 11.43 40.96 10.94L40.96 10.94L40.96 10.94Q41.30 10.46 41.86 10.18L41.86 10.18L41.86 10.18Q42.99 9.62 44.51 9.62L44.51 9.62L44.51 9.62Q46.29 9.62 47.39 10.21L47.39 10.21L47.39 10.21Q47.78 10.42 48.02 10.76L48.02 10.76L48.02 10.76Q48.26 11.10 48.26 11.53L48.26 11.53L48.26 11.53Q48.26 11.96 47.96 12.23L47.96 12.23L47.96 12.23Q47.67 12.51 47.23 12.51L47.23 12.51L47.23 12.51Q46.79 12.51 46.59 12.47L46.59 12.47L46.59 12.47Q46.50 11.27 46.03 10.87L46.03 10.87L46.03 10.87Q45.55 10.47 44.26 10.47ZM50.54 18.14L50.54 10.88L50.54 10.88Q50.54 10.75 49.96 10.60L49.96 10.60L49.96 10.60Q49.39 10.45 49.39 10.33L49.39 10.33L49.39 10.33Q49.39 9.71 50.80 9.71L50.80 9.71L51.41 9.72L51.41 9.72Q51.52 9.72 51.73 9.90L51.73 9.90L51.73 9.90Q51.93 10.08 52.04 10.27L52.04 10.27L55.64 16.75L55.64 16.75Q56.71 15.03 59.10 10.99L59.10 10.99L59.10 11.00L59.10 11.00Q59.14 10.94 59.26 10.69L59.26 10.69L59.26 10.69Q59.39 10.45 59.47 10.33L59.47 10.33L59.47 10.33Q59.55 10.21 59.68 10.04L59.68 10.04L59.68 10.04Q59.95 9.72 60.34 9.72L60.34 9.72L60.84 9.71L60.84 9.71Q62.09 9.71 62.09 10.33L62.09 10.33L62.09 10.33Q62.09 10.54 61.50 10.61L61.50 10.61L61.50 10.61Q60.92 10.67 60.92 10.88L60.92 10.88L60.92 18.14L60.92 18.14Q60.92 18.27 61.21 18.36L61.21 18.36L61.21 18.36Q61.50 18.44 61.80 18.52L61.80 18.52L61.80 18.52Q62.09 18.59 62.09 18.70L62.09 18.70L62.09 18.70Q62.09 19.33 60.74 19.33L60.74 19.33L60.20 19.31L59.63 19.33L59.63 19.33Q58.29 19.33 58.29 18.70L58.29 18.70L58.29 18.70Q58.29 18.55 58.58 18.49L58.58 18.49L58.58 18.49Q58.86 18.43 59.15 18.37L59.15 18.37L59.15 18.37Q59.43 18.31 59.43 18.14L59.43 18.14L59.43 12.04L59.43 12.04Q59.30 12.27 58.26 14.18L58.26 14.18L58.26 14.18Q56.49 17.38 55.86 18.13L55.86 18.13L55.86 18.12L55.86 18.12Q55.67 18.31 55.50 18.31L55.50 18.31L55.50 18.31Q55.34 18.31 55.23 18.28L55.23 18.28L55.23 18.28Q55.13 18.25 55.05 18.17L55.05 18.17L55.05 18.17Q54.97 18.09 54.93 18.04L54.93 18.04L54.93 18.04Q54.89 17.99 54.82 17.86L54.82 17.86L54.82 17.86Q54.76 17.73 54.73 17.68L54.73 17.68L51.74 12.78L51.74 18.14L51.74 18.14Q51.74 18.27 52.04 18.36L52.04 18.36L52.04 18.36Q52.33 18.44 52.63 18.52L52.63 18.52L52.63 18.52Q52.92 18.59 52.92 18.70L52.92 18.70L52.92 18.70Q52.92 19.32 51.65 19.32L51.65 19.32L51.15 19.31L50.63 19.33L50.63 19.33Q49.39 19.33 49.39 18.70L49.39 18.70L49.39 18.70Q49.39 18.54 49.68 18.48L49.68 18.48L49.68 18.48Q49.96 18.43 50.25 18.37L50.25 18.37L50.25 18.37Q50.54 18.31 50.54 18.14L50.54 18.14ZM66.93 10.47L66.93 10.47L66.93 10.47Q66.10 10.47 65.63 10.68L65.63 10.68L65.63 10.68Q64.76 11.08 64.76 11.73L64.76 11.73L64.76 11.73Q64.76 12.08 64.96 12.28L64.96 12.28L64.96 12.28Q65.49 12.84 66.34 13.22L66.34 13.22L66.34 13.22Q66.86 13.45 67.83 13.80L67.83 13.80L67.83 13.80Q68.80 14.16 69.15 14.31L69.15 14.31L69.15 14.31Q69.49 14.47 69.91 14.74L69.91 14.74L69.91 14.74Q70.33 15.00 70.60 15.29L70.60 15.29L70.60 15.29Q71.26 15.98 71.26 16.87L71.26 16.87L71.26 16.87Q71.26 17.51 70.91 18.02L70.91 18.02L70.91 18.02Q70.57 18.53 69.99 18.84L69.99 18.84L69.99 18.84Q68.81 19.48 67.30 19.48L67.30 19.48L67.30 19.48Q65.26 19.48 63.97 18.77L63.97 18.77L63.97 18.77Q63.54 18.53 63.27 18.16L63.27 18.16L63.27 18.16Q62.99 17.78 62.99 17.35L62.99 17.35L62.99 17.35Q62.99 16.93 63.25 16.68L63.25 16.68L63.25 16.68Q63.51 16.43 63.99 16.43L63.99 16.43L63.99 16.43Q64.48 16.43 64.75 16.77L64.75 16.77L64.75 16.77Q65.02 17.10 65.02 17.64L65.02 17.64L65.02 17.64Q65.02 17.86 64.98 18.10L64.98 18.10L64.98 18.10Q66.01 18.63 67.20 18.63L67.20 18.63L67.20 18.63Q68.24 18.63 68.98 18.32L68.98 18.32L68.98 18.32Q69.82 17.96 69.82 17.06L69.82 17.06L69.82 17.06Q69.82 16.13 67.95 15.41L67.95 15.41L67.95 15.41Q67.63 15.29 66.98 15.07L66.98 15.07L66.98 15.07Q65.64 14.60 64.96 14.25L64.96 14.25L64.96 14.25Q63.30 13.37 63.30 12.05L63.30 12.05L63.30 12.05Q63.30 11.43 63.64 10.94L63.64 10.94L63.64 10.94Q63.97 10.46 64.53 10.18L64.53 10.18L64.53 10.18Q65.67 9.62 67.18 9.62L67.18 9.62L67.18 9.62Q68.97 9.62 70.07 10.21L70.07 10.21L70.07 10.21Q70.45 10.42 70.69 10.76L70.69 10.76L70.69 10.76Q70.94 11.10 70.94 11.53L70.94 11.53L70.94 11.53Q70.94 11.96 70.64 12.23L70.64 12.23L70.64 12.23Q70.34 12.51 69.90 12.51L69.90 12.51L69.90 12.51Q69.47 12.51 69.26 12.47L69.26 12.47L69.26 12.47Q69.17 11.27 68.70 10.87L68.70 10.87L68.70 10.87Q68.23 10.47 66.93 10.47Z"></path></g><defs data-v-fde0c5aa=""><linearGradient data-v-fde0c5aa="" gradientTransform="rotate(25)" id="1db244b8-3f3e-4c6c-b4d6-2ea6a9f7558a" x1="0%" y1="0%" x2="100%" y2="0%"><stop data-v-fde0c5aa="" offset="0%" stop-color="#288B58" stop-opacity="1"></stop><stop data-v-fde0c5aa="" offset="100%" stop-color="#1522F1" stop-opacity="1"></stop></linearGradient></defs><g data-v-fde0c5aa="" id="1fdc99f7-3f7c-4134-b786-84cb982e54bc" stroke="none" fill="url(#1db244b8-3f3e-4c6c-b4d6-2ea6a9f7558a)" transform="matrix(1.1620981459992068,0,0,1.1620981459992068,40,131.4064296640127)"><path d="M11.579 32H32L21.789 14.314z"></path><circle cx="8.683" cy="8.683" r="8.683"></circle></g><!----></svg>